<svg xmlns:xlink="http://www.w3.org/1999/xlink" width="50" height="41" viewBox="0 0 50 41" fill="none" fill-opacity="0" xmlns="http://www.w3.org/2000/svg"> <path d="M35.2129 1H14.7874V31.1277H29.0852C32.4694 31.1277 35.2129 28.3842 35.2129 25V1Z" stroke="#FFFFFF" stroke-width="1.02128px" stroke-miterlimit="10" fill="#FFFFFF" fill-opacity="0"></path> <path d="M21.4255 33.6808V33.6808C21.4255 37.0651 18.6821 39.8085 15.2979 39.8085H1V9.68085H14.7872" stroke="#FFFFFF" stroke-width="1.02128px" stroke-miterlimit="10" fill="#FFFFFF" fill-opacity="0"></path> <path d="M39.4613 9.68085H49V33.6808C49 37.0651 46.2565 39.8085 42.8723 39.8085H28.5745V31.1277" stroke="#FFFFFF" stroke-width="1.02128px" stroke-miterlimit="10" fill="#FFFFFF" fill-opacity="0"></path> <path d="M20.4043 11.7234L25 4.57446L29.5958 11.7234H20.4043Z" stroke="#FFFFFF" stroke-width="1.02128px" stroke-miterlimit="10" fill="#FFFFFF" fill-opacity="0"></path> <path d="M14.7872 16.7532C13.9446 15.7115 12.6578 15.0426 11.2127 15.0426C8.67482 15.0426 6.61694 17.1004 6.61694 19.6383C6.61694 22.1762 8.67482 24.234 11.2127 24.234C12.6578 24.234 13.9446 23.5702 14.7872 22.5285" stroke="#FFFFFF" stroke-width="1.02128px" stroke-miterlimit="10" fill="#FFFFFF" fill-opacity="0"></path> <path d="M35.2126 18.2647L38.5318 14.9455L43.2246 19.6383L38.5318 24.3311L35.2126 21.0119" stroke="#FFFFFF" stroke-width="1.02128px" stroke-miterlimit="10" fill="#FFFFFF" fill-opacity="0"></path> <path d="M33.6809 29.0851H43.8937" stroke="#FFFFFF" stroke-width="1.02128px" stroke-miterlimit="10" fill="#FFFFFF" fill-opacity="0"></path> <path d="M32.6597 32.6596H43.8937" stroke="#FFFFFF" stroke-width="1.02128px" stroke-miterlimit="10" fill="#FFFFFF" fill-opacity="0"></path> <path d="M19.3831 17.3404H30.6171" stroke="#FFFFFF" stroke-width="1.02128px" stroke-miterlimit="10" fill="#FFFFFF" fill-opacity="0"></path> <path d="M19.3831 20.9149H30.6171" stroke="#FFFFFF" stroke-width="1.02128px" stroke-miterlimit="10" fill="#FFFFFF" fill-opacity="0"></path> <path d="M19.3831 24.4894H30.6171" stroke="#FFFFFF" stroke-width="1.02128px" stroke-miterlimit="10" fill="#FFFFFF" fill-opacity="0"></path> <path d="M5.5957 28.5745H14.7872" stroke="#FFFFFF" stroke-width="1.02128px" stroke-miterlimit="10" fill="#FFFFFF" fill-opacity="0"></path> </svg>