<svg xmlns:xlink="http://www.w3.org/1999/xlink" width="32" height="33" viewBox="0 0 32 33" fill="none" xmlns="http://www.w3.org/2000/svg"> <g clip-path="url(#clip0_7608_14882)" fill="#171321"> <path d="M13.0763 7.05223C14.4881 6.58734 15.984 6.43452 17.4607 6.60434C18.9373 6.77415 20.3595 7.26255 21.6289 8.03579C22.8983 8.80902 23.9847 9.84864 24.813 11.0828C25.6413 12.317 26.1917 13.7163 26.4263 15.1841C26.6609 16.6518 26.574 18.153 26.1716 19.5838C25.7692 21.0147 25.061 22.3412 24.0958 23.4715C23.1306 24.6019 21.9316 25.5092 20.5814 26.1308C19.2313 26.7524 17.7622 27.0734 16.2759 27.0717H5.24707" stroke="#171321" stroke-width="1.27982px" stroke-linecap="round" stroke-linejoin="round" fill="none"></path> <path d="M29.9684 27.0717H25.3657" stroke="#171321" stroke-width="1.27982px" stroke-linecap="round" stroke-linejoin="round" fill="none"></path> <path d="M8.66149 23.6802C7.7388 22.6592 7.03084 21.4631 6.5797 20.163C6.12855 18.863 5.94345 17.4854 6.03538 16.1124C6.12732 14.7393 6.49442 13.3988 7.11485 12.1705C7.73528 10.9421 8.59638 9.85112 9.64694 8.96228" stroke="#171321" stroke-width="1.27982px" stroke-linecap="round" stroke-linejoin="round" fill="none"></path> <path d="M4.595 25.0975H0.639771V29.0528H4.595V25.0975Z" stroke="#171321" stroke-width="1.27982px" stroke-linecap="round" stroke-linejoin="round" fill="none"></path> <path d="M29.0454 29.4795L31.3596 27.1685L29.0454 24.8544" stroke="#171321" stroke-width="1.27982px" stroke-linecap="round" stroke-linejoin="round" fill="none"></path> <path d="M14.1259 4.51489L12.3727 7.27458L15.1324 9.02783" stroke="#171321" stroke-width="1.27982px" stroke-linecap="round" stroke-linejoin="round" fill="none"></path> <path d="M19.3705 14.8398L14.9488 19.2616L13.1346 17.4475" stroke="#171321" stroke-width="1.27982px" stroke-linecap="round" stroke-linejoin="round" fill="none"></path> </g> <defs> <clipPath id="clip0_7608_14882"> <rect width="31.9954" height="31.9954" fill="none" transform="translate(0 0.995361)"></rect> </clipPath> </defs> </svg>