<svg xmlns:xlink="http://www.w3.org/1999/xlink" viewBox="0 0 32 32" fill="currentColor" fill-opacity="0" xmlns="http://www.w3.org/2000/svg" width="32"  height="32" ><g clip-path="url(#clip0_7608_14913)" stroke="#A989F5" stroke-width="1.28px" stroke-linecap="round" stroke-linejoin="round" fill="#A989F5" fill-opacity="0"><path d="M18.238 21.667a1.146 1.146 0 01.928 0l1.206.563a7.529 7.529 0 001.625-1.626l-.56-1.19a1.149 1.149 0 01.64-1.564l1.251-.455c.12-.76.12-1.536 0-2.297l-1.25-.448a1.148 1.148 0 01-.64-1.561L22 11.882a7.529 7.529 0 00-1.626-1.625l-1.212.554a1.148 1.148 0 01-1.565-.64l-.454-1.251a7.375 7.375 0 00-2.298 0l-.447 1.25a1.15 1.15 0 01-1.562.64l-1.206-.563a7.45 7.45 0 00-1.6 1.581m.554 2.182a1.151 1.151 0 01-.666.64l-1.25.454a7.474 7.474 0 000 2.298l1.25.448a1.15 1.15 0 01.64 1.561l-.563 1.206a7.528 7.528 0 001.625 1.626l1.213-.554a1.15 1.15 0 011.565.64l.454 1.251c.76.12 1.536.12 2.297 0m-3.583-7.33a2.432 2.432 0 114.863 0 2.432 2.432 0 01-4.863 0zm15.45-.64v.64a13.025 13.025 0 01-7.36 11.733M16 3.218a13.041 13.041 0 0111.945 7.807M2.997 17.11a13.029 13.029 0 017.33-12.587M16 29.282a13.035 13.035 0 01-12.075-8.124" stroke="#A989F5" fill="#A989F5" stroke-width="1.28px" fill-opacity="0"></path><path d="M17.166.892l-2.328 2.33 2.328 2.33m-2.328 26.064l2.328-2.33-2.328-2.33m16.527-9.541l-2.33-2.327-2.33 2.327M.641 15.088l2.33 2.327 2.33-2.327" stroke="#A989F5" fill="#A989F5" stroke-width="1.28px" fill-opacity="0"></path></g><defs><clipPath id="clip0_7608_14913"><path fill="#fff" transform="translate(0 .252)" d="M0 0h31.995v31.995H0z"></path></clipPath></defs></svg>