<svg xmlns:xlink="http://www.w3.org/1999/xlink" viewBox="0 0 32 32" fill="currentColor" fill-opacity="0" xmlns="http://www.w3.org/2000/svg" width="32"  height="32" ><g clip-path="url(#clip0_7608_14887)" stroke="#A989F5" stroke-width="1.28px" stroke-linecap="round" stroke-linejoin="round" fill="none" fill-opacity="0"><path d="M7.602 16.718a8.396 8.396 0 1116.792 0 8.396 8.396 0 01-16.792 0z" stroke="#A989F5" fill="none" stroke-width="1.28px" fill-opacity="0"></path><path d="M15.998 3.686a13.035 13.035 0 015.168 24.998m-5.168 1.065a13.034 13.034 0 01-5.074-25.04" stroke="#A989F5" fill="none" stroke-width="1.28px" fill-opacity="0"></path><path d="M17.163 1.36l-2.327 2.33 2.327 2.33m-2.327 26.064l2.327-2.33-2.327-2.33m-2.026-8.918l-1.804-1.804 1.805-1.808m7.059 0l1.804 1.808-1.804 1.804m-2.589-4.562l-1.884 5.548" stroke="#A989F5" fill="none" stroke-width="1.28px" fill-opacity="0"></path></g><defs><clipPath id="clip0_7608_14887"><path fill="#fff" transform="translate(0 .72)" d="M0 0h31.995v31.995H0z"></path></clipPath></defs></svg>