<svg xmlns:xlink="http://www.w3.org/1999/xlink" width="96" height="90" viewBox="0 0 96 90" fill="none" xmlns="http://www.w3.org/2000/svg"> <path d="M72 27H83C89.6274 27 95 32.3726 95 39V54C95 60.6274 89.6274 66 83 66H72" stroke="#FFFFFF" stroke-width="2px" stroke-miterlimit="10" fill="none"></path> <path d="M57 84H60C66.6274 84 72 78.6274 72 72V17.9706C72 14.788 70.7357 11.7357 68.4853 9.48528L60 1H36L27.5147 9.48528C25.2643 11.7357 24 14.788 24 17.9706V66H13C6.37258 66 1 60.6274 1 54V39C1 32.3726 6.37258 27 13 27H16" stroke="#FFFFFF" stroke-width="2px" stroke-miterlimit="10" fill="none"></path> <path d="M51.5 78H43.5C40.4624 78 38 80.4624 38 83.5C38 86.5376 40.4624 89 43.5 89H51.5C54.5376 89 57 86.5376 57 83.5C57 80.4624 54.5376 78 51.5 78Z" stroke="#FFFFFF" stroke-width="2px" stroke-miterlimit="10" fill="none"></path> </svg>