<svg xmlns:xlink="http://www.w3.org/1999/xlink" xmlns="http://www.w3.org/2000/svg" width="33" height="28" viewBox="0 0 33 28" fill="none" data-v-7737f7b0="" data-v-7ba06247=""><path d="M7.52 27.8C5.06667 27.8 3.2 26.8667 1.92 25C0.64 23.1333 0 20.5733 0 17.32C0 13.5333 0.933333 10.2 2.8 7.32C4.66667 4.44 7.52 2.06667 11.36 0.199997L13.92 5.32C11.52 6.49333 9.70667 7.90666 8.48 9.56C7.30667 11.16 6.72 13.1333 6.72 15.48C6.82667 15.4267 6.96 15.4 7.12 15.4C7.28 15.4 7.41333 15.4 7.52 15.4C9.22667 15.4 10.6667 15.9333 11.84 17C13.0667 18.0133 13.68 19.4267 13.68 21.24C13.68 23.2133 13.0933 24.8133 11.92 26.04C10.7467 27.2133 9.28 27.8 7.52 27.8ZM26.48 27.8C24.0267 27.8 22.16 26.8667 20.88 25C19.6 23.1333 18.96 20.5733 18.96 17.32C18.96 13.5333 19.8933 10.2 21.76 7.32C23.6267 4.44 26.48 2.06667 30.32 0.199997L32.88 5.32C30.48 6.49333 28.6667 7.90666 27.44 9.56C26.2667 11.16 25.68 13.1333 25.68 15.48C25.7867 15.4267 25.92 15.4 26.08 15.4C26.24 15.4 26.3733 15.4 26.48 15.4C28.1867 15.4 29.6267 15.9333 30.8 17C32.0267 18.0133 32.64 19.4267 32.64 21.24C32.64 23.2133 32.0533 24.8133 30.88 26.04C29.7067 27.2133 28.24 27.8 26.48 27.8Z" fill="#171321" data-v-7737f7b0="" data-v-7ba06247=""></path></svg>