<svg xmlns:xlink="http://www.w3.org/1999/xlink" width="24" height="24" viewBox="0 0 24 24" fill="none" xmlns="http://www.w3.org/2000/svg"> <path d="M23.5 15.5H9.5V23.5H23.5V15.5Z" stroke="#74717A" stroke-miterlimit="10" fill="none"></path> <path d="M16.5 21.5C17.6046 21.5 18.5 20.6046 18.5 19.5C18.5 18.3954 17.6046 17.5 16.5 17.5C15.3954 17.5 14.5 18.3954 14.5 19.5C14.5 20.6046 15.3954 21.5 16.5 21.5Z" stroke="#74717A" stroke-miterlimit="10" fill="none"></path> <path d="M10.5 2.76001V10.08L6.98999 12" stroke="#74717A" stroke-miterlimit="10" fill="none"></path> <path d="M20.3 12.5C20.43 11.85 20.5 11.19 20.5 10.5C20.5 4.98 16.02 0.5 10.5 0.5C4.98 0.5 0.5 4.98 0.5 10.5C0.5 14.6 2.97 18.12 6.5 19.66" stroke="#74717A" stroke-miterlimit="10" fill="none"></path> </svg>