<svg xmlns:xlink="http://www.w3.org/1999/xlink" viewBox="0 0 32 32" fill="currentColor" fill-opacity="0" xmlns="http://www.w3.org/2000/svg" width="32"  height="32" ><g clip-path="url(#clip0_1145_6758)" stroke="#171321" stroke-width="1.28px" stroke-linecap="round" stroke-linejoin="round" fill="#171321" fill-opacity="0"><path d="M14.928 12.872l-4.182-4.16a3.622 3.622 0 10-.115 5.165l.96-.96m5.986-5.98l.893-.96a7.513 7.513 0 115.369 12.77" stroke="#171321" fill="#171321" stroke-width="1.28px" fill-opacity="0"></path><path d="M20.335 9.576l.912-.87a3.622 3.622 0 11.103 5.151l-7.823-7.88a7.515 7.515 0 10-5.372 12.769" stroke="#171321" fill="#171321" stroke-width="1.28px" fill-opacity="0"></path><path d="M15.997 28.28c-3.052-.93-5.65-3.596-5.65-7.07v-4.892a4.863 4.863 0 005.65-1.744v0a4.863 4.863 0 005.65 1.744v4.892c0 3.474-2.598 6.14-5.65 7.07" stroke="#171321" fill="#171321" stroke-width="1.28px" fill-opacity="0"></path><path d="M17.3 21.606v-1.033a1.283 1.283 0 00-1.283-1.299v0a1.285 1.285 0 00-1.282 1.299v1.033" stroke="#171321" fill="#171321" stroke-width="1.28px" fill-opacity="0"></path><path d="M17.758 21.6h-3.513v2.478h3.513V21.6z" stroke="#171321" fill="#171321" stroke-width="1.28px" fill-opacity="0"></path></g><defs><clipPath id="clip0_1145_6758"><path fill="#fff" d="M0 0h31.995v31.995H0z"></path></clipPath></defs></svg>