<svg xmlns:xlink="http://www.w3.org/1999/xlink" viewBox="0 0 32 32" fill="none" xmlns="http://www.w3.org/2000/svg" width="32"  height="32" ><g clip-path="url(#clip0_1386_12925)" fill="#171321"><path d="M16 27.098a.64.64 0 01-.378-.125l-4.69-3.46a1.02 1.02 0 01-.372-1.113l1.6-5.05a.842.842 0 01.79-.576.826.826 0 01.81.557l.931 2.912h2.63l.919-2.909a.826.826 0 01.78-.576.822.822 0 01.785.57L21.44 22.4a1.021 1.021 0 01-.365 1.13l-4.694 3.44a.62.62 0 01-.381.128zm-4.16-4.503L16 25.661l4.16-3.066-1.123-3.52-.64 2a.64.64 0 01-.608.445h-3.571a.64.64 0 01-.608-.445l-.64-2.003-1.13 3.523z" fill="#171321"></path><path d="M26.096 23.334h-2.31a.64.64 0 110-1.28h2.31a4.62 4.62 0 004.74-4.616 4.618 4.618 0 00-4.74-4.616 4.694 4.694 0 00-1.037.122.64.64 0 01-.777-.704 6.867 6.867 0 00-13.29-3.155.64.64 0 01-.835.384 6.515 6.515 0 10-2.362 12.585h.845a.64.64 0 110 1.28h-.845a7.795 7.795 0 010-15.59 7.68 7.68 0 012.24.32 8.144 8.144 0 0115.584 3.29v.21c.163 0 .32-.022.48-.022a5.897 5.897 0 110 11.792h-.003z" fill="#171321"></path></g><defs><clipPath id="clip0_1386_12925"><path fill="#fff" d="M0 0h32v32H0z"></path></clipPath></defs></svg>