<svg xmlns:xlink="http://www.w3.org/1999/xlink" viewBox="0 0 32 33" fill="currentColor" fill-opacity="0" xmlns="http://www.w3.org/2000/svg" width="32"  height="33" ><g clip-path="url(#clip0_1145_7210)" stroke="#A989F5" stroke-width="1.28px" stroke-linecap="round" stroke-linejoin="round" fill="#A989F5" fill-opacity="0"><path d="M5.05 2.062h24.6a1.709 1.709 0 011.708 1.709v18.154a1.709 1.709 0 01-1.708 1.708H2.35a1.709 1.709 0 01-1.708-1.708V3.77A1.709 1.709 0 012.35 2.062m28.62 17.031H.642m19.321 6.486v2.287h-7.928v-4.233m-1.557 4.243h11.045a1.94 1.94 0 011.939 1.92v.844H8.539v-.844a1.939 1.939 0 011.939-1.92v0z" stroke="#A989F5" fill="#A989F5" stroke-width="1.28px" fill-opacity="0"></path><path d="M9.28 15.948a4.822 4.822 0 100-9.643 4.822 4.822 0 000 9.643z" stroke="#A989F5" fill="#A989F5" stroke-width="1.28px" fill-opacity="0"></path><path d="M7.44 11.34l1.094 1.09 2.596-2.596m11.59 6.114a4.822 4.822 0 100-9.643 4.822 4.822 0 000 9.643zm-1.3-3.52l2.6-2.597m-2.6-.001l2.6 2.598" stroke="#A989F5" fill="#A989F5" stroke-width="1.28px" fill-opacity="0"></path></g><defs><clipPath id="clip0_1145_7210"><path fill="#fff" transform="translate(0 .36)" d="M0 0h31.995v31.995H0z"></path></clipPath></defs></svg>