<svg xmlns:xlink="http://www.w3.org/1999/xlink" width="33" height="33" viewBox="0 0 33 33" fill="none" xmlns="http://www.w3.org/2000/svg"> <g clip-path="url(#clip0_7608_15007)" fill="#171321"> <path d="M4.2604 6.23632C4.54516 15.0926 3.44772 18.5801 5.7066 23.2771C7.30636 26.6014 12.7456 30.7192 16.9914 32.2358" stroke="#171321" stroke-width="1.27982px" stroke-linecap="round" stroke-linejoin="round" fill="none"></path> <path d="M6.3398 6.35791C8.35158 6.32244 10.3347 5.87484 12.1667 5.04277C13.9987 4.21069 15.6406 3.01182 16.9911 1.5202C18.5771 3.27255 20.5626 4.61629 22.779 5.43732C24.9954 6.25836 27.3771 6.53245 29.722 6.23632C29.4373 15.0926 30.5347 18.5801 28.2758 23.2771C26.6761 26.6014 21.2369 30.7192 16.9911 32.2358" stroke="#171321" stroke-width="1.27982px" stroke-linecap="round" stroke-linejoin="round" fill="none"></path> <path d="M22.753 13.7904L21.3004 12.3378C21.2204 12.2571 21.1252 12.1931 21.0203 12.1494C20.9154 12.1057 20.8029 12.0832 20.6893 12.0832C20.5756 12.0832 20.4631 12.1057 20.3583 12.1494C20.2534 12.1931 20.1582 12.2571 20.0782 12.3378L15.6212 16.782L13.9254 15.083C13.763 14.9216 13.5433 14.831 13.3143 14.831C13.0854 14.831 12.8657 14.9216 12.7032 15.083L11.2506 16.5388C11.0894 16.7007 10.9989 16.9198 10.9989 17.1483C10.9989 17.3768 11.0894 17.5959 11.2506 17.7578L14.6421 21.1493C14.7705 21.2777 14.9229 21.3795 15.0906 21.449C15.2583 21.5185 15.4381 21.5543 15.6196 21.5543C15.8011 21.5543 15.9809 21.5185 16.1486 21.449C16.3163 21.3795 16.4687 21.2777 16.5971 21.1493L22.753 15.0094C22.8336 14.9297 22.8975 14.8348 22.9412 14.7301C22.9848 14.6255 23.0073 14.5133 23.0073 14.3999C23.0073 14.2865 22.9848 14.1743 22.9412 14.0697C22.8975 13.9651 22.8336 13.8701 22.753 13.7904V13.7904Z" stroke="#171321" stroke-width="1.27982px" stroke-linecap="round" stroke-linejoin="round" fill="none"></path> </g> <defs> <clipPath id="clip0_7608_15007"> <rect width="31.9954" height="31.9954" fill="none" transform="translate(0.995361 0.880249)"></rect> </clipPath> </defs> </svg>