<svg xmlns:xlink="http://www.w3.org/1999/xlink" viewBox="0 0 32 32" fill="currentColor" fill-opacity="0" xmlns="http://www.w3.org/2000/svg" width="32"  height="32" ><g clip-path="url(#clip0_1740_6849)" stroke="#A989F5" stroke-width="1.28px" stroke-linecap="round" stroke-linejoin="round" fill="#A989F5" fill-opacity="0"><path d="M28.391 25.046a15.466 15.466 0 01-3.365 3.363l-2.49-1.162a2.384 2.384 0 00-3.228 1.338l-.94 2.585a15.41 15.41 0 01-4.755 0l-.94-2.585a2.388 2.388 0 00-3.23-1.338L6.952 28.41a15.519 15.519 0 01-3.362-3.363l1.161-2.492a2.368 2.368 0 00-1.337-3.229l-2.586-.94a15.383 15.383 0 010-4.755l2.586-.94A2.386 2.386 0 004.75 9.46l-.32-.717m-.841-1.771a15.47 15.47 0 013.219-3.26.32.32 0 01.32-.03l2.329 1.089a2.37 2.37 0 003.228-1.338l.94-2.588a15.383 15.383 0 014.755 0l.941 2.588a2.371 2.371 0 003.228 1.338l2.49-1.165a15.408 15.408 0 013.353 3.366l-1.165 2.49a2.371 2.371 0 001.337 3.228l2.589.94a15.41 15.41 0 010 4.755l-2.588.94a2.386 2.386 0 00-1.338 3.229l.387.774" stroke="#A989F5" fill="#A989F5" stroke-width="1.28px" fill-opacity="0"></path><path d="M11.662 18.21L9.44 15.986l2.222-2.222m8.686 0l2.224 2.222-2.224 2.224m-3.184-5.617l-2.32 6.831" stroke="#A989F5" fill="#A989F5" stroke-width="1.28px" fill-opacity="0"></path></g><defs><clipPath id="clip0_1740_6849"><path fill="#fff" d="M0 0h31.995v31.995H0z"></path></clipPath></defs></svg>