<svg xmlns:xlink="http://www.w3.org/1999/xlink" width="32" height="32" viewBox="0 0 32 32" fill="none" xmlns="http://www.w3.org/2000/svg" data-v-46d2551b=""><circle cx="16" cy="16" r="16" fill="#FFFFFF" fill-opacity="0.9"></circle> <path d="M19.9515 10.3515C20.4201 9.88284 21.1799 9.88284 21.6485 10.3515C22.1172 10.8201 22.1172 11.5799 21.6485 12.0485L17.6971 16L21.6485 19.9515C22.1172 20.4201 22.1172 21.1799 21.6485 21.6485C21.1799 22.1172 20.4201 22.1172 19.9515 21.6485L16 17.6971L12.0485 21.6485C11.5799 22.1172 10.8201 22.1172 10.3515 21.6485C9.88284 21.1799 9.88284 20.4201 10.3515 19.9515L14.3029 16L10.3515 12.0485C9.88284 11.5799 9.88284 10.8201 10.3515 10.3515C10.8201 9.88284 11.5799 9.88284 12.0485 10.3515L16 14.3029L19.9515 10.3515Z" fill="#333333"></path></svg>