<svg xmlns:xlink="http://www.w3.org/1999/xlink" viewBox="0 0 32 32" fill="currentColor" fill-opacity="0" xmlns="http://www.w3.org/2000/svg" width="32"  height="32" ><g clip-path="url(#clip0_1145_7239)" stroke="#A989F5" stroke-width="1.28px" stroke-linecap="round" stroke-linejoin="round" fill="#A989F5" fill-opacity="0"><path d="M19.96 10.943h2.118m-11.694 0h1.802M4.732 1.702h24.915a1.709 1.709 0 011.708 1.709v18.154a1.709 1.709 0 01-1.708 1.708H2.348A1.709 1.709 0 01.64 21.566V3.41a1.709 1.709 0 011.708-1.709m28.62 17.032H.64m19.319 6.486v2.287H12.03v-4.233m-1.556 4.243h11.044a1.939 1.939 0 011.94 1.92v.845H8.534v-.845a1.94 1.94 0 011.939-1.92v0z" stroke="#A989F5" fill="#A989F5" stroke-width="1.28px" fill-opacity="0"></path><path d="M15.98 14.462a3.523 3.523 0 100-7.045 3.523 3.523 0 000 7.045z" stroke="#A989F5" fill="#A989F5" stroke-width="1.28px" fill-opacity="0"></path><path d="M14.847 11.073l.674.67 1.593-1.597m8.616 4.316a3.523 3.523 0 100-7.045 3.523 3.523 0 000 7.045z" stroke="#A989F5" fill="#A989F5" stroke-width="1.28px" fill-opacity="0"></path><path d="M24.6 11.073l.67.67 1.598-1.597M6.586 14.462a3.523 3.523 0 100-7.045 3.523 3.523 0 000 7.045z" stroke="#A989F5" fill="#A989F5" stroke-width="1.28px" fill-opacity="0"></path><path d="M5.455 11.073l.67.67 1.597-1.597" stroke="#A989F5" fill="#A989F5" stroke-width="1.28px" fill-opacity="0"></path></g><defs><clipPath id="clip0_1145_7239"><path fill="#fff" d="M0 0h31.995v31.995H0z"></path></clipPath></defs></svg>