<svg xmlns:xlink="http://www.w3.org/1999/xlink" width="34" height="32" viewBox="0 0 34 32" fill="currentColor" xmlns="http://www.w3.org/2000/svg"> <path d="M5.61342 0.405681L6.29342 2.08118C6.40008 2.35823 6.62675 2.58251 6.90675 2.68805L8.60008 3.36089C9.14675 3.57198 9.14675 4.35036 8.60008 4.56144L6.90675 5.23428C6.62675 5.33982 6.40008 5.5641 6.29342 5.84115L5.61342 7.51665C5.40008 8.05756 4.61342 8.05756 4.40008 7.51665L3.72008 5.84115C3.61342 5.5641 3.38675 5.33982 3.10675 5.23428L1.41342 4.56144C0.866751 4.35036 0.866751 3.57198 1.41342 3.36089L3.10675 2.68805C3.38675 2.58251 3.61342 2.35823 3.72008 2.08118L4.40008 0.405681C4.61342 -0.135227 5.40008 -0.135227 5.61342 0.405681Z" fill="#A989F5"></path> <path d="M12.0666 6.87018L12.5199 7.97839C12.5999 8.16309 12.7466 8.30821 12.9332 8.38737L14.0532 8.83592C14.4132 8.98105 14.4132 9.49557 14.0532 9.64069L12.9332 10.0892C12.7466 10.1684 12.5999 10.3135 12.5199 10.4982L12.0666 11.6064C11.9199 11.9626 11.3999 11.9626 11.2532 11.6064L10.7999 10.4982C10.7199 10.3135 10.5732 10.1684 10.3866 10.0892L9.26658 9.64069C8.90658 9.49557 8.90658 8.98105 9.26658 8.83592L10.3866 8.38737C10.5732 8.30821 10.7199 8.16309 10.7999 7.97839L11.2532 6.87018C11.3999 6.51398 11.9199 6.51398 12.0666 6.87018Z" fill="#A989F5"></path> <path fill-opacity="0" d="M9.6665 21.765H1.6665V31H9.6665V21.765Z" stroke="#A989F5" stroke-width="1.45px" stroke-miterlimit="10" fill="#A989F5"></path> <path fill-opacity="0" d="M21 16.4878H13V31H21V16.4878Z" stroke="#A989F5" stroke-width="1.45px" stroke-miterlimit="10" fill="#A989F5"></path> <path fill-opacity="0" d="M24.3335 7.25281H32.3335V27.0421C32.3335 29.2322 30.5468 31 28.3335 31H24.3335V7.25281Z" stroke="#A989F5" stroke-width="1.45px" stroke-miterlimit="10" fill="#A989F5"></path> <path fill-opacity="0" d="M14.7598 6.96254L20.8931 1.31598H32.9998" stroke="#A989F5" stroke-width="1.45px" stroke-miterlimit="10" fill="#A989F5"></path> <path fill-opacity="0" d="M1 15.34H5.66667L8.14667 13.0577" stroke="#A989F5" stroke-width="1.45px" stroke-miterlimit="10" fill="#A989F5"></path> </svg>