<svg xmlns:xlink="http://www.w3.org/1999/xlink" xmlns="http://www.w3.org/2000/svg" width="16" height="16" viewBox="0 0 16 16" fill="none">
    <g clip-path="url(#clip0_566_2729)">
      <path fill-rule="evenodd" clip-rule="evenodd" d="M2.75 0.75C2.75 0.335786 2.41421 0 2 0C1.58579 0 1.25 0.335786 1.25 0.75V1.25H0.75C0.335786 1.25 0 1.58579 0 2C0 2.41421 0.335786 2.75 0.75 2.75H1.25V3.25C1.25 3.66421 1.58579 4 2 4C2.41421 4 2.75 3.66421 2.75 3.25V2.75H3.25C3.66421 2.75 4 2.41421 4 2C4 1.58579 3.66421 1.25 3.25 1.25H2.75V0.75ZM14.3949 6.86835L14.3949 6.86834L14.3807 6.83021L13.831 5.39024L13.6589 5.91941L13.3219 6.95546H12.2324H7.76796H6.67849L6.34152 5.91941L6.16973 5.39124L5.61867 6.83574L5.61476 6.84598L5.61071 6.85616L5.59863 6.88649C5.48204 7.19813 5.46838 7.53958 5.55996 7.85993C5.65223 8.1827 5.84599 8.46545 6.11078 8.66645L6.11207 8.66743L6.11491 8.66956L6.12547 8.67752L6.13589 8.68565L6.13918 8.68822L8.61299 10.5501L8.61771 10.5537L8.61771 10.5537L9.85035 11.4891L9.85077 11.4894L9.9975 11.6008L10.1442 11.4894L10.1447 11.4891L11.3773 10.5537L11.3828 10.5496L11.3828 10.5496L13.8739 8.67708L13.8788 8.67329L13.8877 8.66652C14.1532 8.46554 14.3474 8.18248 14.4399 7.85927C14.5324 7.53599 14.5178 7.19118 14.3983 6.87719L14.3949 6.86835ZM14.7863 9.86779L12.2841 11.7486L11.0514 12.684L10.3026 13.2527C10.2147 13.3193 10.1076 13.3554 9.9975 13.3554C9.88739 13.3554 9.78029 13.3193 9.69243 13.2527L8.9436 12.684L7.71095 11.7486L5.22641 9.87862L5.21254 9.86779L5.20638 9.86315C4.68131 9.46543 4.29922 8.90706 4.11774 8.27223C3.93625 7.6374 3.96521 6.96051 4.20024 6.34365L4.21719 6.3011L5.43088 3.11961L5.4986 2.9421L5.54221 2.82777L5.71489 2.37514L5.73219 2.32978L5.84967 2.02184C5.88272 1.93783 5.94154 1.86657 6.01761 1.81836C6.07441 1.78204 6.13888 1.75955 6.20587 1.75268C6.27286 1.74582 6.34052 1.75476 6.40345 1.77881C6.46639 1.80286 6.52286 1.84135 6.56836 1.8912C6.61386 1.94105 6.64713 2.00089 6.66552 2.06594L6.76472 2.37092L6.76882 2.38353L6.96224 2.97822L7.02116 3.15937L7.76796 5.45546H12.2324L12.9793 3.15916L13.0382 2.97822L13.2316 2.38353L13.2356 2.37118L13.3349 2.06594C13.3531 2.00079 13.3863 1.94084 13.4318 1.89089C13.4773 1.84095 13.5338 1.80239 13.5968 1.77832C13.6597 1.75425 13.7275 1.74534 13.7945 1.75229C13.8615 1.75925 13.926 1.78187 13.9828 1.81836C14.0589 1.86657 14.1177 1.93783 14.1507 2.02184L14.2673 2.3271L14.2856 2.37517L14.4571 2.82447L14.5018 2.94151L14.5696 3.11923L15.784 6.30032L15.8002 6.34365C16.0349 6.9605 16.0637 7.63726 15.882 8.27194C15.7004 8.90662 15.3183 9.46481 14.7932 9.86237L14.7863 9.86779ZM3.5 11C3.91421 11 4.25 11.3358 4.25 11.75V12.75H5.25C5.66421 12.75 6 13.0858 6 13.5C6 13.9142 5.66421 14.25 5.25 14.25H4.25V15.25C4.25 15.6642 3.91421 16 3.5 16C3.08579 16 2.75 15.6642 2.75 15.25V14.25H1.75C1.33579 14.25 1 13.9142 1 13.5C1 13.0858 1.33579 12.75 1.75 12.75H2.75V11.75C2.75 11.3358 3.08579 11 3.5 11Z" fill="black"/>
    </g>
    <defs>
      <clipPath id="clip0_566_2729">
        <rect width="16" height="16" fill="white"/>
      </clipPath>
    </defs>
  </svg>